<svg xmlns="http://www.w3.org/2000/svg" xmlns:xlink="http://www.w3.org/1999/xlink" width="500" zoomAndPan="magnify" viewBox="0 0 375 374.999991" height="500" preserveAspectRatio="xMidYMid meet" version="1.0"><defs><g/><clipPath id="0a0e02734e"><path d="M 122.320312 137.066406 L 137.964844 137.066406 L 137.964844 226 L 122.320312 226 Z M 122.320312 137.066406 " clip-rule="nonzero"/></clipPath><clipPath id="2e0424cec1"><path d="M 130.144531 137.066406 C 134.464844 137.066406 137.964844 140.566406 137.964844 144.886719 L 137.964844 218.195312 C 137.964844 222.515625 134.464844 226.019531 130.144531 226.019531 C 125.820312 226.019531 122.320312 222.515625 122.320312 218.195312 L 122.320312 144.886719 C 122.320312 140.566406 125.820312 137.066406 130.144531 137.066406 Z M 130.144531 137.066406 " clip-rule="nonzero"/></clipPath><clipPath id="48b5f35ad3"><path d="M 122.320312 217.761719 L 130.570312 217.761719 L 130.570312 226.011719 L 122.320312 226.011719 Z M 122.320312 217.761719 " clip-rule="nonzero"/></clipPath><clipPath id="e64d795369"><path d="M 122 78 L 196 78 L 196 152 L 122 152 Z M 122 78 " clip-rule="nonzero"/></clipPath><clipPath id="9a5eb46208"><path d="M 130.199219 154.652344 L 119.132812 143.589844 L 187.550781 75.171875 L 198.613281 86.234375 Z M 130.199219 154.652344 " clip-rule="nonzero"/></clipPath><clipPath id="58b7355d95"><path d="M 124.664062 149.121094 C 121.609375 146.066406 121.609375 141.113281 124.664062 138.054688 L 181.984375 80.738281 C 185.039062 77.683594 189.992188 77.683594 193.050781 80.738281 C 196.105469 83.792969 196.105469 88.746094 193.050781 91.800781 L 135.730469 149.121094 C 132.675781 152.175781 127.722656 152.175781 124.664062 149.121094 Z M 124.664062 149.121094 " clip-rule="nonzero"/></clipPath><clipPath id="fe4683e590"><path d="M 216.140625 217.761719 L 224.390625 217.761719 L 224.390625 226.011719 L 216.140625 226.011719 Z M 216.140625 217.761719 " clip-rule="nonzero"/></clipPath><clipPath id="c8ff856048"><path d="M 237.472656 137.066406 L 253.121094 137.066406 L 253.121094 226 L 237.472656 226 Z M 237.472656 137.066406 " clip-rule="nonzero"/></clipPath><clipPath id="a0a4b881ed"><path d="M 245.296875 137.066406 C 249.617188 137.066406 253.121094 140.566406 253.121094 144.886719 L 253.121094 218.195312 C 253.121094 222.515625 249.617188 226.019531 245.296875 226.019531 C 240.976562 226.019531 237.472656 222.515625 237.472656 218.195312 L 237.472656 144.886719 C 237.472656 140.566406 240.976562 137.066406 245.296875 137.066406 Z M 245.296875 137.066406 " clip-rule="nonzero"/></clipPath><clipPath id="70d68d8d8b"><path d="M 237.472656 217.761719 L 245.722656 217.761719 L 245.722656 226.011719 L 237.472656 226.011719 Z M 237.472656 217.761719 " clip-rule="nonzero"/></clipPath><clipPath id="d4cedfc4c0"><path d="M 179 78 L 253 78 L 253 152 L 179 152 Z M 179 78 " clip-rule="nonzero"/></clipPath><clipPath id="f94dd17115"><path d="M 176.421875 86.273438 L 187.484375 75.210938 L 255.902344 143.625 L 244.835938 154.691406 Z M 176.421875 86.273438 " clip-rule="nonzero"/></clipPath><clipPath id="37391d2030"><path d="M 181.953125 80.742188 C 185.007812 77.6875 189.960938 77.6875 193.015625 80.742188 L 250.335938 138.0625 C 253.390625 141.117188 253.390625 146.070312 250.335938 149.125 C 247.28125 152.179688 242.328125 152.179688 239.269531 149.125 L 181.953125 91.804688 C 178.898438 88.75 178.898438 83.796875 181.953125 80.742188 Z M 181.953125 80.742188 " clip-rule="nonzero"/></clipPath><clipPath id="809a924981"><path d="M 179.890625 210.371094 L 253.117188 210.371094 L 253.117188 226.019531 L 179.890625 226.019531 Z M 179.890625 210.371094 " clip-rule="nonzero"/></clipPath><clipPath id="f7d519f5c4"><path d="M 253.117188 218.195312 C 253.117188 222.515625 249.613281 226.019531 245.292969 226.019531 L 187.714844 226.019531 C 183.394531 226.019531 179.890625 222.515625 179.890625 218.195312 C 179.890625 213.875 183.394531 210.371094 187.714844 210.371094 L 245.292969 210.371094 C 249.613281 210.371094 253.117188 213.875 253.117188 218.195312 Z M 253.117188 218.195312 " clip-rule="nonzero"/></clipPath><clipPath id="a5e0982a53"><path d="M 179.894531 165.644531 L 195.542969 165.644531 L 195.542969 225.847656 L 179.894531 225.847656 Z M 179.894531 165.644531 " clip-rule="nonzero"/></clipPath><clipPath id="efe48f41ea"><path d="M 187.71875 165.644531 C 192.039062 165.644531 195.542969 169.148438 195.542969 173.46875 L 195.542969 217.984375 C 195.542969 222.304688 192.039062 225.808594 187.71875 225.808594 C 183.398438 225.808594 179.894531 222.304688 179.894531 217.984375 L 179.894531 173.46875 C 179.894531 169.148438 183.398438 165.644531 187.71875 165.644531 Z M 187.71875 165.644531 " clip-rule="nonzero"/></clipPath><clipPath id="141a8a0984"><path d="M 179 143 L 218 143 L 218 181 L 179 181 Z M 179 143 " clip-rule="nonzero"/></clipPath><clipPath id="f08c0aabf7"><path d="M 187.773438 183.621094 L 176.710938 172.554688 L 209.429688 139.835938 L 220.492188 150.902344 Z M 187.773438 183.621094 " clip-rule="nonzero"/></clipPath><clipPath id="fabc77777a"><path d="M 182.242188 178.085938 C 179.1875 175.03125 179.1875 170.078125 182.242188 167.023438 L 203.855469 145.410156 C 206.910156 142.355469 211.863281 142.355469 214.921875 145.410156 C 217.976562 148.464844 217.976562 153.417969 214.921875 156.472656 L 193.308594 178.085938 C 190.25 181.140625 185.296875 181.140625 182.242188 178.085938 Z M 182.242188 178.085938 " clip-rule="nonzero"/></clipPath><clipPath id="33330baec6"><path d="M 157 143 L 196 143 L 196 181 L 157 181 Z M 157 143 " clip-rule="nonzero"/></clipPath><clipPath id="3e10469ae3"><path d="M 154.550781 150.945312 L 165.613281 139.882812 L 198.332031 172.597656 L 187.265625 183.664062 Z M 154.550781 150.945312 " clip-rule="nonzero"/></clipPath><clipPath id="a0027ce42c"><path d="M 160.082031 145.414062 C 163.136719 142.359375 168.089844 142.359375 171.144531 145.414062 L 192.757812 167.027344 C 195.8125 170.082031 195.8125 175.035156 192.757812 178.089844 C 189.703125 181.148438 184.75 181.148438 181.695312 178.089844 L 160.082031 156.476562 C 157.027344 153.421875 157.027344 148.46875 160.082031 145.414062 Z M 160.082031 145.414062 " clip-rule="nonzero"/></clipPath><clipPath id="a00c8cae81"><path d="M 207.148438 186.730469 L 225.136719 186.730469 L 225.136719 204.722656 L 207.148438 204.722656 Z M 207.148438 186.730469 " clip-rule="nonzero"/></clipPath><clipPath id="17c0914f44"><path d="M 216.140625 186.730469 C 211.175781 186.730469 207.148438 190.757812 207.148438 195.726562 C 207.148438 200.695312 211.175781 204.722656 216.140625 204.722656 C 221.109375 204.722656 225.136719 200.695312 225.136719 195.726562 C 225.136719 190.757812 221.109375 186.730469 216.140625 186.730469 Z M 216.140625 186.730469 " clip-rule="nonzero"/></clipPath></defs><rect x="-37.5" width="450" fill="#ffffff" y="-37.499999" height="449.999989" fill-opacity="1"/><rect x="-37.5" width="450" fill="#ffffff" y="-37.499999" height="449.999989" fill-opacity="1"/><rect x="-37.5" width="450" fill="#fcf3e4" y="-37.499999" height="449.999989" fill-opacity="1"/><g clip-path="url(#0a0e02734e)"><g clip-path="url(#2e0424cec1)"><path fill="#1a3e4f" d="M 122.320312 137.066406 L 137.964844 137.066406 L 137.964844 225.996094 L 122.320312 225.996094 Z M 122.320312 137.066406 " fill-opacity="1" fill-rule="nonzero"/></g></g><g clip-path="url(#48b5f35ad3)"><path fill="#000000" d="M 122.472656 217.761719 C 122.472656 222.226562 126.105469 225.859375 130.570312 225.859375 L 130.570312 226.011719 C 130.027344 226.011719 129.492188 225.957031 128.960938 225.851562 C 128.429688 225.746094 127.914062 225.589844 127.410156 225.382812 C 126.910156 225.175781 126.4375 224.921875 125.984375 224.621094 C 125.535156 224.320312 125.117188 223.980469 124.734375 223.597656 C 124.351562 223.210938 124.011719 222.796875 123.710938 222.34375 C 123.40625 221.894531 123.152344 221.417969 122.945312 220.917969 C 122.738281 220.417969 122.582031 219.902344 122.476562 219.371094 C 122.371094 218.839844 122.320312 218.304688 122.320312 217.761719 " fill-opacity="1" fill-rule="nonzero"/></g><g clip-path="url(#e64d795369)"><g clip-path="url(#9a5eb46208)"><g clip-path="url(#58b7355d95)"><path fill="#1a3e4f" d="M 130.199219 154.652344 L 119.132812 143.589844 L 187.507812 75.214844 L 198.570312 86.277344 Z M 130.199219 154.652344 " fill-opacity="1" fill-rule="nonzero"/></g></g></g><g clip-path="url(#fe4683e590)"><path fill="#000000" d="M 216.296875 217.761719 C 216.296875 222.226562 219.929688 225.859375 224.394531 225.859375 L 224.394531 226.011719 C 223.851562 226.011719 223.3125 225.957031 222.78125 225.851562 C 222.25 225.746094 221.734375 225.589844 221.234375 225.382812 C 220.734375 225.175781 220.257812 224.921875 219.808594 224.621094 C 219.359375 224.320312 218.941406 223.980469 218.558594 223.597656 C 218.175781 223.210938 217.832031 222.796875 217.53125 222.34375 C 217.230469 221.894531 216.976562 221.417969 216.769531 220.917969 C 216.5625 220.417969 216.40625 219.902344 216.300781 219.371094 C 216.195312 218.839844 216.144531 218.304688 216.144531 217.761719 " fill-opacity="1" fill-rule="nonzero"/></g><g clip-path="url(#c8ff856048)"><g clip-path="url(#a0a4b881ed)"><path fill="#1a3e4f" d="M 237.472656 137.066406 L 253.121094 137.066406 L 253.121094 225.996094 L 237.472656 225.996094 Z M 237.472656 137.066406 " fill-opacity="1" fill-rule="nonzero"/></g></g><g clip-path="url(#70d68d8d8b)"><path fill="#000000" d="M 237.625 217.761719 C 237.625 222.226562 241.257812 225.859375 245.722656 225.859375 L 245.722656 226.011719 C 245.179688 226.011719 244.644531 225.957031 244.113281 225.851562 C 243.582031 225.746094 243.066406 225.589844 242.566406 225.382812 C 242.066406 225.175781 241.589844 224.921875 241.136719 224.621094 C 240.6875 224.320312 240.269531 223.980469 239.886719 223.597656 C 239.503906 223.210938 239.164062 222.796875 238.863281 222.34375 C 238.5625 221.894531 238.308594 221.417969 238.101562 220.917969 C 237.894531 220.417969 237.738281 219.902344 237.632812 219.371094 C 237.527344 218.839844 237.472656 218.304688 237.472656 217.761719 " fill-opacity="1" fill-rule="nonzero"/></g><g clip-path="url(#d4cedfc4c0)"><g clip-path="url(#f94dd17115)"><g clip-path="url(#37391d2030)"><path fill="#1a3e4f" d="M 176.421875 86.273438 L 187.484375 75.210938 L 255.859375 143.582031 L 244.792969 154.648438 Z M 176.421875 86.273438 " fill-opacity="1" fill-rule="nonzero"/></g></g></g><g clip-path="url(#809a924981)"><g clip-path="url(#f7d519f5c4)"><path fill="#1a3e4f" d="M 253.117188 210.371094 L 253.117188 226.019531 L 179.890625 226.019531 L 179.890625 210.371094 Z M 253.117188 210.371094 " fill-opacity="1" fill-rule="nonzero"/></g></g><g clip-path="url(#a5e0982a53)"><g clip-path="url(#efe48f41ea)"><path fill="#1a3e4f" d="M 179.894531 165.644531 L 195.542969 165.644531 L 195.542969 225.789062 L 179.894531 225.789062 Z M 179.894531 165.644531 " fill-opacity="1" fill-rule="nonzero"/></g></g><g clip-path="url(#141a8a0984)"><g clip-path="url(#f08c0aabf7)"><g clip-path="url(#fabc77777a)"><path fill="#1a3e4f" d="M 187.773438 183.621094 L 176.710938 172.554688 L 209.382812 139.878906 L 220.449219 150.945312 Z M 187.773438 183.621094 " fill-opacity="1" fill-rule="nonzero"/></g></g></g><g clip-path="url(#33330baec6)"><g clip-path="url(#3e10469ae3)"><g clip-path="url(#a0027ce42c)"><path fill="#1a3e4f" d="M 154.550781 150.945312 L 165.613281 139.882812 L 198.289062 172.554688 L 187.222656 183.621094 Z M 154.550781 150.945312 " fill-opacity="1" fill-rule="nonzero"/></g></g></g><g clip-path="url(#a00c8cae81)"><g clip-path="url(#17c0914f44)"><path fill="#1a3e4f" d="M 207.148438 186.730469 L 225.136719 186.730469 L 225.136719 204.722656 L 207.148438 204.722656 Z M 207.148438 186.730469 " fill-opacity="1" fill-rule="nonzero"/></g></g><g fill="#1a3e4f" fill-opacity="1"><g transform="translate(43.701567, 305.659228)"><g><path d="M 31.71875 0 L 20.28125 0 L 20.28125 -22.734375 L 0.28125 -57.90625 L 12.546875 -57.90625 L 25.78125 -35.125 L 26.765625 -35.125 L 39.71875 -57.90625 L 51.71875 -57.90625 L 31.71875 -22.734375 Z M 31.71875 0 "/></g></g></g><g fill="#1a3e4f" fill-opacity="1"><g transform="translate(90.226764, 305.659228)"><g><path d="M 17.03125 0.828125 C 14.226562 0.828125 11.796875 0.316406 9.734375 -0.703125 C 7.679688 -1.734375 6.097656 -3.242188 4.984375 -5.234375 C 3.878906 -7.234375 3.328125 -9.632812 3.328125 -12.4375 C 3.328125 -15.019531 3.878906 -17.1875 4.984375 -18.9375 C 6.097656 -20.695312 7.816406 -22.140625 10.140625 -23.265625 C 12.460938 -24.390625 15.5 -25.253906 19.25 -25.859375 C 21.863281 -26.285156 23.847656 -26.75 25.203125 -27.25 C 26.566406 -27.75 27.484375 -28.316406 27.953125 -28.953125 C 28.429688 -29.585938 28.671875 -30.390625 28.671875 -31.359375 C 28.671875 -32.765625 28.179688 -33.835938 27.203125 -34.578125 C 26.234375 -35.316406 24.613281 -35.6875 22.34375 -35.6875 C 19.90625 -35.6875 17.59375 -35.144531 15.40625 -34.0625 C 13.21875 -32.976562 11.316406 -31.550781 9.703125 -29.78125 L 8.90625 -29.78125 L 4.3125 -36.71875 C 6.53125 -39.164062 9.238281 -41.078125 12.4375 -42.453125 C 15.632812 -43.828125 19.117188 -44.515625 22.890625 -44.515625 C 28.671875 -44.515625 32.851562 -43.285156 35.4375 -40.828125 C 38.03125 -38.378906 39.328125 -34.894531 39.328125 -30.375 L 39.328125 -11.40625 C 39.328125 -9.445312 40.1875 -8.46875 41.90625 -8.46875 C 42.5625 -8.46875 43.207031 -8.585938 43.84375 -8.828125 L 44.390625 -8.671875 L 45.1875 -1.03125 C 44.582031 -0.632812 43.738281 -0.3125 42.65625 -0.0625 C 41.570312 0.1875 40.382812 0.3125 39.09375 0.3125 C 36.476562 0.3125 34.4375 -0.1875 32.96875 -1.1875 C 31.5 -2.1875 30.453125 -3.757812 29.828125 -5.90625 L 28.984375 -5.984375 C 26.847656 -1.441406 22.863281 0.828125 17.03125 0.828125 Z M 20.515625 -7.359375 C 23.046875 -7.359375 25.070312 -8.207031 26.59375 -9.90625 C 28.113281 -11.613281 28.875 -13.988281 28.875 -17.03125 L 28.875 -21.46875 L 28.125 -21.625 C 27.457031 -21.09375 26.585938 -20.648438 25.515625 -20.296875 C 24.453125 -19.941406 22.914062 -19.59375 20.90625 -19.25 C 18.53125 -18.851562 16.820312 -18.171875 15.78125 -17.203125 C 14.738281 -16.242188 14.21875 -14.878906 14.21875 -13.109375 C 14.21875 -11.234375 14.769531 -9.804688 15.875 -8.828125 C 16.988281 -7.847656 18.535156 -7.359375 20.515625 -7.359375 Z M 20.515625 -7.359375 "/></g></g></g><g fill="#1a3e4f" fill-opacity="1"><g transform="translate(136.277558, 305.659228)"><g><path d="M 6.296875 0 L 6.296875 -43.6875 L 16.828125 -43.6875 L 16.828125 -37.828125 L 17.65625 -37.65625 C 19.082031 -40.007812 20.753906 -41.738281 22.671875 -42.84375 C 24.585938 -43.957031 27.035156 -44.515625 30.015625 -44.515625 C 33.316406 -44.515625 35.96875 -43.859375 37.96875 -42.546875 C 39.976562 -41.242188 41.445312 -39.335938 42.375 -36.828125 L 43.203125 -36.828125 C 44.554688 -39.441406 46.296875 -41.375 48.421875 -42.625 C 50.546875 -43.882812 53.191406 -44.515625 56.359375 -44.515625 C 65.410156 -44.515625 69.9375 -39.472656 69.9375 -29.390625 L 69.9375 0 L 58.96875 0 L 58.96875 -28 C 58.96875 -30.5625 58.460938 -32.410156 57.453125 -33.546875 C 56.453125 -34.679688 54.847656 -35.25 52.640625 -35.25 C 46.617188 -35.25 43.609375 -31.222656 43.609375 -23.171875 L 43.609375 0 L 32.640625 0 L 32.640625 -28 C 32.640625 -30.5625 32.128906 -32.410156 31.109375 -33.546875 C 30.085938 -34.679688 28.46875 -35.25 26.25 -35.25 C 23.425781 -35.25 21.222656 -34.300781 19.640625 -32.40625 C 18.054688 -30.519531 17.265625 -27.519531 17.265625 -23.40625 L 17.265625 0 Z M 6.296875 0 "/></g></g></g><g fill="#1a3e4f" fill-opacity="1"><g transform="translate(211.827785, 305.659228)"><g><path d="M 18.140625 0.828125 C 14.203125 0.828125 11.195312 -0.234375 9.125 -2.359375 C 7.050781 -4.484375 6.015625 -7.710938 6.015625 -12.046875 L 6.015625 -61.234375 L 16.984375 -61.234375 L 16.984375 -12.46875 C 16.984375 -9.800781 18.09375 -8.46875 20.3125 -8.46875 C 20.945312 -8.46875 21.625 -8.578125 22.34375 -8.796875 L 22.890625 -8.640625 L 23.875 -0.203125 C 23.269531 0.117188 22.460938 0.367188 21.453125 0.546875 C 20.453125 0.734375 19.347656 0.828125 18.140625 0.828125 Z M 18.140625 0.828125 "/></g></g></g><g fill="#1a3e4f" fill-opacity="1"><g transform="translate(236.932001, 305.659228)"><g><path d="M 20 0.828125 C 15.09375 0.828125 11.46875 -0.507812 9.125 -3.1875 C 6.789062 -5.863281 5.625 -9.710938 5.625 -14.734375 L 5.625 -43.6875 L 16.59375 -43.6875 L 16.59375 -16.125 C 16.59375 -13.457031 17.164062 -11.507812 18.3125 -10.28125 C 19.46875 -9.050781 21.242188 -8.4375 23.640625 -8.4375 C 26.679688 -8.4375 29.046875 -9.429688 30.734375 -11.421875 C 32.421875 -13.421875 33.265625 -16.554688 33.265625 -20.828125 L 33.265625 -43.6875 L 44.234375 -43.6875 L 44.234375 0 L 33.703125 0 L 33.703125 -6.421875 L 32.875 -6.609375 C 31.46875 -4.097656 29.753906 -2.226562 27.734375 -1 C 25.722656 0.21875 23.144531 0.828125 20 0.828125 Z M 20 0.828125 "/></g></g></g><g fill="#1a3e4f" fill-opacity="1"><g transform="translate(287.457205, 305.659228)"><g><path d="M 6.296875 0 L 6.296875 -61.234375 L 17.265625 -61.234375 L 17.265625 -27.25 L 18.34375 -27.25 L 30.96875 -43.6875 L 42.09375 -43.6875 L 42.09375 -42.765625 L 27.25 -23.609375 L 43.765625 -0.984375 L 43.765625 0 L 32.203125 0 L 18.34375 -18.421875 L 17.265625 -18.421875 L 17.265625 0 Z M 6.296875 0 "/></g></g></g></svg>